<mxfile>
    <diagram id="Re5fLuisLfcXWdBu47g3" name="第 1 页">
        <mxGraphModel dx="825" dy="680" grid="1" gridSize="10" guides="1" tooltips="1" connect="1" arrows="1" fold="1" page="1" pageScale="1" pageWidth="827" pageHeight="1169" background="#F4F1DE" math="0" shadow="0">
            <root>
                <object label="" id="0">
                    <mxCell/>
                </object>
                <mxCell id="1" parent="0"/>
                <mxCell id="2" value="module1" style="ellipse;whiteSpace=wrap;html=1;rounded=0;sketch=0;strokeColor=#E07A5F;fillColor=#F2CC8F;fontColor=#393C56;" parent="1" vertex="1">
                    <mxGeometry x="30" y="70" width="90" height="40" as="geometry"/>
                </mxCell>
                <mxCell id="3" value="module2&lt;br&gt;" style="ellipse;whiteSpace=wrap;html=1;rounded=0;sketch=0;strokeColor=#E07A5F;fillColor=#F2CC8F;fontColor=#393C56;" parent="1" vertex="1">
                    <mxGeometry x="30" y="140" width="90" height="40" as="geometry"/>
                </mxCell>
                <mxCell id="4" value="module3" style="ellipse;whiteSpace=wrap;html=1;rounded=0;sketch=0;strokeColor=#E07A5F;fillColor=#F2CC8F;fontColor=#393C56;" parent="1" vertex="1">
                    <mxGeometry x="30" y="200" width="90" height="40" as="geometry"/>
                </mxCell>
                <mxCell id="5" value="..." style="ellipse;whiteSpace=wrap;html=1;rounded=0;sketch=0;strokeColor=#E07A5F;fillColor=#F2CC8F;fontColor=#393C56;" parent="1" vertex="1">
                    <mxGeometry x="30" y="260" width="90" height="40" as="geometry"/>
                </mxCell>
                <mxCell id="6" value="chunk1&lt;br&gt;" style="rounded=1;whiteSpace=wrap;html=1;sketch=0;strokeColor=#E07A5F;fillColor=#F2CC8F;fontColor=#393C56;" parent="1" vertex="1">
                    <mxGeometry x="270" y="130" width="120" height="30" as="geometry"/>
                </mxCell>
                <mxCell id="7" value="chunk2" style="rounded=1;whiteSpace=wrap;html=1;sketch=0;strokeColor=#E07A5F;fillColor=#F2CC8F;fontColor=#393C56;" parent="1" vertex="1">
                    <mxGeometry x="270" y="210" width="120" height="30" as="geometry"/>
                </mxCell>
                <mxCell id="14" value="bundle" style="rounded=0;whiteSpace=wrap;html=1;sketch=0;strokeColor=#E07A5F;fillColor=#F2CC8F;fontColor=#393C56;" parent="1" vertex="1">
                    <mxGeometry x="430" y="165" width="120" height="35" as="geometry"/>
                </mxCell>
                <mxCell id="15" value="" style="endArrow=classic;html=1;strokeColor=#E07A5F;fillColor=#F2CC8F;fontColor=#393C56;exitX=1;exitY=0.5;exitDx=0;exitDy=0;entryX=0;entryY=0.5;entryDx=0;entryDy=0;" parent="1" source="6" target="14" edge="1">
                    <mxGeometry width="50" height="50" relative="1" as="geometry">
                        <mxPoint x="280" y="360" as="sourcePoint"/>
                        <mxPoint x="330" y="310" as="targetPoint"/>
                    </mxGeometry>
                </mxCell>
                <mxCell id="16" value="" style="endArrow=classic;html=1;strokeColor=#E07A5F;fillColor=#F2CC8F;fontColor=#393C56;exitX=1;exitY=0.5;exitDx=0;exitDy=0;entryX=0;entryY=0.5;entryDx=0;entryDy=0;" parent="1" source="7" target="14" edge="1">
                    <mxGeometry width="50" height="50" relative="1" as="geometry">
                        <mxPoint x="280" y="360" as="sourcePoint"/>
                        <mxPoint x="330" y="310" as="targetPoint"/>
                    </mxGeometry>
                </mxCell>
                <mxCell id="17" value="server ready" style="rounded=0;whiteSpace=wrap;html=1;sketch=0;strokeColor=#E07A5F;fillColor=#F2CC8F;fontColor=#393C56;" parent="1" vertex="1">
                    <mxGeometry x="580" y="165" width="120" height="35" as="geometry"/>
                </mxCell>
                <mxCell id="18" value="" style="endArrow=classic;html=1;strokeColor=#E07A5F;fillColor=#F2CC8F;fontColor=#393C56;exitX=1;exitY=0.5;exitDx=0;exitDy=0;entryX=0;entryY=0.5;entryDx=0;entryDy=0;" parent="1" source="14" target="17" edge="1">
                    <mxGeometry width="50" height="50" relative="1" as="geometry">
                        <mxPoint x="280" y="360" as="sourcePoint"/>
                        <mxPoint x="330" y="310" as="targetPoint"/>
                    </mxGeometry>
                </mxCell>
                <mxCell id="19" value="webpack" style="shape=cylinder3;whiteSpace=wrap;html=1;boundedLbl=1;backgroundOutline=1;size=15;rounded=0;sketch=0;strokeColor=#E07A5F;fillColor=#F2CC8F;fontColor=#393C56;" parent="1" vertex="1">
                    <mxGeometry x="160" y="140" width="60" height="80" as="geometry"/>
                </mxCell>
                <mxCell id="20" value="" style="endArrow=classic;html=1;strokeColor=#E07A5F;fillColor=#F2CC8F;fontColor=#393C56;exitX=1;exitY=0.5;exitDx=0;exitDy=0;entryX=0;entryY=0;entryDx=0;entryDy=52.5;entryPerimeter=0;" parent="1" source="5" target="19" edge="1">
                    <mxGeometry width="50" height="50" relative="1" as="geometry">
                        <mxPoint x="400" y="360" as="sourcePoint"/>
                        <mxPoint x="450" y="310" as="targetPoint"/>
                    </mxGeometry>
                </mxCell>
                <mxCell id="21" value="" style="endArrow=classic;html=1;strokeColor=#E07A5F;fillColor=#F2CC8F;fontColor=#393C56;exitX=1;exitY=0.5;exitDx=0;exitDy=0;" parent="1" source="4" edge="1">
                    <mxGeometry width="50" height="50" relative="1" as="geometry">
                        <mxPoint x="130" y="290" as="sourcePoint"/>
                        <mxPoint x="160" y="190" as="targetPoint"/>
                    </mxGeometry>
                </mxCell>
                <mxCell id="22" value="" style="endArrow=classic;html=1;strokeColor=#E07A5F;fillColor=#F2CC8F;fontColor=#393C56;exitX=1;exitY=0.5;exitDx=0;exitDy=0;" parent="1" source="3" edge="1">
                    <mxGeometry width="50" height="50" relative="1" as="geometry">
                        <mxPoint x="130" y="230" as="sourcePoint"/>
                        <mxPoint x="160" y="190" as="targetPoint"/>
                    </mxGeometry>
                </mxCell>
                <mxCell id="23" value="" style="endArrow=classic;html=1;strokeColor=#E07A5F;fillColor=#F2CC8F;fontColor=#393C56;exitX=1;exitY=0.5;exitDx=0;exitDy=0;" parent="1" source="2" edge="1">
                    <mxGeometry width="50" height="50" relative="1" as="geometry">
                        <mxPoint x="130" y="170" as="sourcePoint"/>
                        <mxPoint x="160" y="190" as="targetPoint"/>
                    </mxGeometry>
                </mxCell>
                <mxCell id="24" value="" style="endArrow=classic;html=1;strokeColor=#E07A5F;fillColor=#F2CC8F;fontColor=#393C56;exitX=1;exitY=0.5;exitDx=0;exitDy=0;entryX=0;entryY=0.5;entryDx=0;entryDy=0;exitPerimeter=0;" parent="1" source="19" target="6" edge="1">
                    <mxGeometry width="50" height="50" relative="1" as="geometry">
                        <mxPoint x="140" y="180" as="sourcePoint"/>
                        <mxPoint x="180" y="210" as="targetPoint"/>
                    </mxGeometry>
                </mxCell>
                <mxCell id="25" value="" style="endArrow=classic;html=1;strokeColor=#E07A5F;fillColor=#F2CC8F;fontColor=#393C56;entryX=0;entryY=0.5;entryDx=0;entryDy=0;" parent="1" target="7" edge="1">
                    <mxGeometry width="50" height="50" relative="1" as="geometry">
                        <mxPoint x="220" y="180" as="sourcePoint"/>
                        <mxPoint x="280" y="155" as="targetPoint"/>
                    </mxGeometry>
                </mxCell>
                <mxCell id="26" value="webpack" style="text;html=1;align=center;verticalAlign=middle;resizable=0;points=[];autosize=1;fontColor=#393C56;" parent="1" vertex="1">
                    <mxGeometry x="40" y="20" width="60" height="20" as="geometry"/>
                </mxCell>
                <mxCell id="27" value="vite" style="text;html=1;align=center;verticalAlign=middle;resizable=0;points=[];autosize=1;fontColor=#393C56;" parent="1" vertex="1">
                    <mxGeometry x="35" y="350" width="30" height="20" as="geometry"/>
                </mxCell>
                <mxCell id="28" value="vite" style="shape=cylinder3;whiteSpace=wrap;html=1;boundedLbl=1;backgroundOutline=1;size=15;rounded=0;sketch=0;strokeColor=#E07A5F;fillColor=#F2CC8F;fontColor=#393C56;" parent="1" vertex="1">
                    <mxGeometry x="35" y="410" width="60" height="80" as="geometry"/>
                </mxCell>
                <mxCell id="29" value="server ready" style="rounded=0;whiteSpace=wrap;html=1;sketch=0;strokeColor=#E07A5F;fillColor=#F2CC8F;fontColor=#393C56;" parent="1" vertex="1">
                    <mxGeometry x="140" y="435" width="120" height="30" as="geometry"/>
                </mxCell>
                <mxCell id="30" value="" style="endArrow=classic;html=1;strokeColor=#E07A5F;fillColor=#F2CC8F;fontColor=#393C56;exitX=1;exitY=0.5;exitDx=0;exitDy=0;exitPerimeter=0;entryX=0;entryY=0.5;entryDx=0;entryDy=0;" parent="1" source="28" target="29" edge="1">
                    <mxGeometry width="50" height="50" relative="1" as="geometry">
                        <mxPoint x="400" y="420" as="sourcePoint"/>
                        <mxPoint x="450" y="370" as="targetPoint"/>
                    </mxGeometry>
                </mxCell>
                <mxCell id="31" value="page" style="whiteSpace=wrap;html=1;aspect=fixed;rounded=0;sketch=0;strokeColor=#E07A5F;fillColor=#F2CC8F;fontColor=#393C56;" parent="1" vertex="1">
                    <mxGeometry x="320" y="505" width="80" height="80" as="geometry"/>
                </mxCell>
                <mxCell id="32" value="module1" style="ellipse;whiteSpace=wrap;html=1;rounded=0;sketch=0;strokeColor=#E07A5F;fillColor=#F2CC8F;fontColor=#393C56;" parent="1" vertex="1">
                    <mxGeometry x="530" y="425" width="120" height="40" as="geometry"/>
                </mxCell>
                <mxCell id="33" value="..." style="ellipse;whiteSpace=wrap;html=1;rounded=0;sketch=0;strokeColor=#E07A5F;fillColor=#F2CC8F;fontColor=#393C56;" parent="1" vertex="1">
                    <mxGeometry x="530" y="480" width="120" height="40" as="geometry"/>
                </mxCell>
                <mxCell id="36" value="" style="endArrow=classic;html=1;strokeColor=#E07A5F;fillColor=#F2CC8F;fontColor=#393C56;exitX=1;exitY=0.25;exitDx=0;exitDy=0;entryX=0;entryY=0.5;entryDx=0;entryDy=0;" parent="1" source="29" target="32" edge="1">
                    <mxGeometry width="50" height="50" relative="1" as="geometry">
                        <mxPoint x="400" y="420" as="sourcePoint"/>
                        <mxPoint x="450" y="370" as="targetPoint"/>
                    </mxGeometry>
                </mxCell>
                <mxCell id="37" value="" style="endArrow=classic;html=1;strokeColor=#E07A5F;fillColor=#F2CC8F;fontColor=#393C56;exitX=0;exitY=0.5;exitDx=0;exitDy=0;entryX=0.5;entryY=1;entryDx=0;entryDy=0;" parent="1" source="31" target="29" edge="1">
                    <mxGeometry width="50" height="50" relative="1" as="geometry">
                        <mxPoint x="400" y="420" as="sourcePoint"/>
                        <mxPoint x="450" y="370" as="targetPoint"/>
                    </mxGeometry>
                </mxCell>
                <mxCell id="38" value="" style="endArrow=classic;html=1;strokeColor=#E07A5F;fillColor=#F2CC8F;fontColor=#393C56;exitX=0.5;exitY=1;exitDx=0;exitDy=0;entryX=1;entryY=0.5;entryDx=0;entryDy=0;" parent="1" source="32" target="31" edge="1">
                    <mxGeometry width="50" height="50" relative="1" as="geometry">
                        <mxPoint x="330" y="555" as="sourcePoint"/>
                        <mxPoint x="210" y="475" as="targetPoint"/>
                    </mxGeometry>
                </mxCell>
                <mxCell id="39" value="利用浏览器资源&lt;br&gt;发起module1请求" style="text;html=1;align=center;verticalAlign=middle;resizable=0;points=[];autosize=1;fontColor=#393C56;" parent="1" vertex="1">
                    <mxGeometry x="145" y="505" width="110" height="30" as="geometry"/>
                </mxCell>
                <mxCell id="40" value="编译module1" style="text;html=1;align=center;verticalAlign=middle;resizable=0;points=[];autosize=1;fontColor=#393C56;" parent="1" vertex="1">
                    <mxGeometry x="320" y="415" width="90" height="20" as="geometry"/>
                </mxCell>
                <mxCell id="41" value="module1编译完成&lt;br&gt;给page" style="text;html=1;align=center;verticalAlign=middle;resizable=0;points=[];autosize=1;fontColor=#393C56;" parent="1" vertex="1">
                    <mxGeometry x="410" y="505" width="110" height="30" as="geometry"/>
                </mxCell>
            </root>
        </mxGraphModel>
    </diagram>
</mxfile>